<?xml version="1.0" encoding="UTF-8"?><svg id="Layer_2" xmlns="http://www.w3.org/2000/svg" width="300.03" height="300.04" viewBox="0 0 300.03 300.04"><defs><style>.cls-1{fill:#eb4328;}.cls-2{fill:#194399;}.cls-3{fill:#cd2e3a;}.cls-4{fill:#f14221;}</style></defs><g id="Layer_1-2"><path class="cls-3" d="m274.83,233.23l-83.21-55.47c-30.63,45.95-92.72,58.37-138.67,27.73C9,176.2-4.27,118.14,21.45,72.93c.02-.03.03-.06.05-.09,1.15-2.03,2.39-4.04,3.71-6.02.82-1.23,1.66-2.45,2.51-3.65C74.49-2.76,165.53-19.92,233.23,25.21c68.92,45.96,87.55,139.09,41.6,208.02Z"/><path class="cls-2" d="m25.21,66.81C-20.74,135.74-2.12,228.87,66.81,274.83s162.06,27.33,208.01-41.6c22.98-34.46,13.66-81.03-20.8-104.01-34.46-22.98-81.03-13.66-104.01,20.8-22.98,34.46-69.54,43.78-104.01,20.8C11.55,147.84,2.23,101.28,25.21,66.81Z"/><path class="cls-4" d="m64.54,261.28l8.24-13.72,4.77,2.87-2.56,4.26c-.37.62-.69,1.1-1.14,1.67l.1.06c.76-.61,1.13-.81,1.65-1.11l5.04-3.02,5.39,3.24-8.32,4.16.53,9.84-5.76-3.46.13-5.91c0-.56.07-1.19.13-1.71l-.1-.06c-.2.52-.4.91-.68,1.36l-2.66,4.42-4.77-2.87Z"/><path class="cls-4" d="m101.76,279.45l4.43-15.39,6.95,2c1.62.46,3.25,1.13,4.25,2.95.56,1.01.89,2.38.37,4.2-.39,1.36-1.05,2.1-1.64,2.5-.63.44-1.52.69-2.47.61l-.04.14c.25.25.49.57.6.95l1.97,6.19-6.44-1.85-.92-5.14c-.02-.18-.07-.27-.07-.54l-.11.02-1.42,4.94-5.45-1.57Zm7.9-6.97l.65.19c.32.09.84.19,1.28,0,.23-.11.52-.35.66-.83.1-.35.11-.72-.03-1.01-.13-.26-.37-.55-.83-.69l-.97-.28-.76,2.63Z"/><path class="cls-4" d="m120.51,284.42l2.72-15.78,10.64,1.83-.74,4.33-4.92-.85-.25,1.47,4.47.77-.71,4.14-4.47-.77-.26,1.51,5.06.87-.75,4.33-10.79-1.86Z"/><path class="cls-4" d="m156.38,287.77l-1.2-15.96,5.53-.42,4.16,5.75c.67.91,1.1,1.51,1.72,2.71h.17c-.31-1-.7-2.58-.79-3.76l-.38-5.07,5.55-.42,1.2,15.96-5.55.42-4.45-6c-.4-.55-.9-1.35-1.26-2h-.17c.23.86.53,2.21.58,2.93l.41,5.43-5.53.42Z"/><path class="cls-4" d="m181.95,274.03c-.47-1.53-1.63-5.25,3.05-6.7,1.74-.54,3.31-.45,4.3.53.26-1.36,1.48-2.32,3.2-2.85,4.63-1.43,5.8,2.34,6.26,3.82l2.55,8.24c.48,1.55-.1,2.65-1.65,3.13l-.17.05c-1.55.48-2.65-.1-3.13-1.65l-2.59-8.38c-.08-.26-.3-.38-.56-.3l-.1.03c-.26.08-.38.3-.3.56l2.59,8.38c.48,1.55-.1,2.65-1.65,3.13l-.22.07c-1.55.48-2.65-.1-3.13-1.65l-2.59-8.38c-.08-.26-.3-.38-.56-.3l-.07.02c-.26.08-.38.3-.3.56l2.59,8.38c.48,1.55-.1,2.65-1.65,3.13l-.21.07c-1.55.48-2.65-.1-3.13-1.65l-2.55-8.24Z"/><path class="cls-4" d="m215.04,265.44c2.08,4.48,1.08,7.67-3.04,9.58-4.16,1.93-7.29.66-9.37-3.83l-3.12-6.72c-.62-1.33,0-2.54,1.14-3.07,1.15-.54,2.46-.22,3.08,1.11l3.43,7.38c.58,1.24,1.52,1.57,2.85.95s1.69-1.55,1.11-2.79l-3.42-7.38c-.62-1.33,0-2.54,1.12-3.06,1.15-.54,2.49-.23,3.1,1.1l3.12,6.72Z"/><path class="cls-4" d="m221.36,252.84c-.76-1.22-.32-2.41.74-3.07,1-.62,2.28-.52,3.04.7l6.65,10.62c.78,1.24.32,2.55-.64,3.15-.65.41-1.49.51-2.41.09l-7.15-3.2,2.92,4.66c.76,1.22.32,2.41-.74,3.07-1,.62-2.26.51-3.02-.71l-6.66-10.64c-.76-1.22-.33-2.51.63-3.11.67-.42,1.5-.54,2.41-.12l7.14,3.21-2.9-4.64Z"/><path class="cls-4" d="m235.16,245.89c-2.02,1.63-1.88,3.86-.7,5.32,1.21,1.49,3.38,2.12,5.37.5l1.34-1.09c1.23-1,2.55-.55,3.27.35.78.97.88,2.31-.33,3.29l-1.33,1.07c-4.35,3.51-9.13,2.07-11.77-1.2-2.67-3.3-3.13-8.49,1.43-12.17l1.05-.84c1.19-.97,2.59-.58,3.34.35.77.95.84,2.38-.35,3.34l-1.33,1.07Z"/><path class="cls-4" d="m256.5,239.12c1.1,1.07.92,2.4.03,3.31-.87.89-2.18,1.1-3.28.03l-2.87-2.8-2.65,2.72,2.87,2.8c1.1,1.07.92,2.4.03,3.31-.87.89-2.18,1.1-3.28.03l-8.91-8.67c-1.05-1.02-.91-2.36-.04-3.26.89-.91,2.24-1.1,3.29-.08l2.89,2.81,2.65-2.72-2.89-2.81c-1.05-1.02-.91-2.36-.04-3.26.89-.91,2.24-1.1,3.29-.08l8.91,8.67Z"/><path class="cls-4" d="m261.87,232.5c1.19.97,1.13,2.31.34,3.28-.8.99-2.08,1.31-3.28.34l-9.65-7.84c-1.14-.92-1.12-2.27-.32-3.26.79-.97,2.12-1.28,3.26-.35l9.65,7.84Z"/><path class="cls-4" d="m267.43,228.87c-.86,1.27-1.95,1.46-3.24.58l-10.08-6.86c-1.29-.88-1.51-1.96-.65-3.23l4.46-6.55c.82-1.21,2.2-1.32,3.26-.6,1.05.72,1.46,2.04.63,3.25l-3.15,4.62,1.33.91,2.62-3.85c.76-1.11,2.02-1.21,2.97-.56.95.65,1.32,1.86.56,2.97l-2.62,3.85,1.35.92,3.15-4.62c.82-1.21,2.18-1.33,3.24-.61,1.05.72,1.46,2.04.63,3.25l-4.46,6.55Z"/><path class="cls-4" d="m278.63,210.68l-2.19,4.08c-.73,1.35-2.1,1.49-3.16.92-1.02-.54-1.68-1.8-.94-3.17l2.29-4.27c.31-.57.04-1.04-.32-1.23-.4-.22-.94-.18-1.25.39l-1.13,2.12c-1.55,2.9-3.7,3.65-6.77,2.01-3.2-1.71-3.94-4.13-2.28-7.24l1.77-3.3c.76-1.42,2.19-1.6,3.21-1.06,1.04.56,1.7,1.86.93,3.3l-1.9,3.55c-.31.57-.05,1.01.35,1.22.36.19.89.18,1.19-.4l1.13-2.12c1.6-2.98,3.74-3.63,6.81-1.99,3.15,1.69,3.91,4.08,2.26,7.17Z"/><path class="cls-1" d="m92,265.52c.63,0,1.21.41,1.4,1.05.22.77-.22,1.58-.99,1.8-.13.04-.27.06-.4.06-.63,0-1.21-.41-1.4-1.05-.22-.77.22-1.58.99-1.8.13-.04.27-.06.4-.06m0-1.5h0c-.28,0-.55.04-.82.12-.76.22-1.39.72-1.77,1.41-.38.69-.47,1.49-.25,2.25.36,1.26,1.53,2.14,2.84,2.14.28,0,.55-.04.82-.12.76-.22,1.39-.72,1.77-1.41s.47-1.49.25-2.25c-.36-1.26-1.53-2.14-2.84-2.14h0Z"/><path class="cls-1" d="m92,263.12c1.67,0,3.21,1.1,3.7,2.79.59,2.04-.59,4.18-2.64,4.77-.36.1-.71.15-1.07.15-1.67,0-3.21-1.1-3.7-2.79-.59-2.04.59-4.18,2.64-4.77.36-.1.71-.15,1.07-.15m0-2h0c-.55,0-1.09.08-1.62.23-3.1.89-4.9,4.14-4.01,7.24.72,2.49,3.03,4.24,5.62,4.24.55,0,1.09-.08,1.62-.23,1.5-.43,2.75-1.42,3.5-2.79s.94-2.95.5-4.45c-.72-2.49-3.03-4.24-5.62-4.24h0Z"/><path class="cls-1" d="m92,259.77c3.13,0,6,2.05,6.91,5.21,1.1,3.82-1.11,7.81-4.93,8.9-.66.19-1.33.28-1.99.28-3.13,0-6-2.05-6.91-5.21-1.1-3.82,1.11-7.81,4.93-8.9.66-.19,1.33-.28,1.99-.28m0-2h0c-.86,0-1.72.12-2.55.36-4.87,1.4-7.7,6.51-6.29,11.38,1.13,3.92,4.76,6.66,8.83,6.66.86,0,1.71-.12,2.55-.36,4.87-1.4,7.7-6.51,6.29-11.38-1.13-3.92-4.76-6.66-8.83-6.66h0Z"/><path class="cls-4" d="m145.02,270.98c-6.65-.45-6.99,4.43-6.99,4.43l-.79,11.64,5.41.37.3-4.49,2.65.2-.28,4.19,5.12.38.8-11.76s.31-4.52-6.21-4.97Zm1.14,7.56l-2.99-.2.13-1.99s.09-1.28,1.57-1.18,1.41,1.41,1.41,1.41l-.13,1.96Z"/><path d="m28.57,140.41c-1.25-1.03-2.18-2.54-2.55-3.19-1.03-1.82-1.48-4.13-.88-6.28.55-2.05,2.03-3.82,3.99-4.93,2.15-1.22,4.45-1.44,6.47-.9,1.54.43,3.61,1.46,5.09,4.07.59,1.04,1.08,2.31,1.33,3.63l-5.22,3.15c.25-.92.43-2.45-.29-3.72-.45-.79-1.18-1.35-2-1.54-.79-.19-1.67-.02-2.4.39-.75.43-1.33,1.11-1.54,1.95-.16.64-.19,1.51.38,2.52.8,1.42,2.21,1.92,2.91,2.08l-5.28,2.79Z"/><path d="m43.3,155.21c-1.95-.08-4.32-.94-6.37-3.2-2.05-2.26-2.68-4.7-2.57-6.65.1-1.78.9-3.83,2.8-5.56,1.88-1.71,4-2.3,5.78-2.23,1.95.08,4.32.94,6.37,3.2s2.68,4.7,2.57,6.65c-.1,1.78-.9,3.83-2.78,5.54-1.9,1.73-4.02,2.32-5.8,2.25Zm.19-11.97c-.83-.02-1.75.36-2.39.94-.68.61-1.11,1.46-1.15,2.27-.03.68.2,1.44.8,2.09s1.33.97,2.01,1c.75.04,1.63-.24,2.37-.92.75-.68,1.14-1.49,1.16-2.29.03-.61-.15-1.38-.8-2.09-.69-.76-1.45-.99-2.01-1Z"/><path d="m48.79,162.85l7.76-14,4.85,2.69.32,7.09c.06,1.13.09,1.86-.05,3.21l.15.08c.28-1,.83-2.53,1.4-3.56l2.46-4.45,4.87,2.7-7.76,14-4.87-2.7-.43-7.45c-.04-.68,0-1.62.05-2.36l-.15-.08c-.27.84-.77,2.13-1.12,2.76l-2.64,4.77-4.85-2.69Z"/><path d="m72.26,173.05l1.87-10.78-3.24-.42.89-5.13,12.06,2.09-.89,5.13-3.19-.7-1.87,10.79-5.63-.98Z"/><path d="m91.13,172.34l-.21,2.03-6.11.69,3.72-16.53,6.39-.72,7.47,15.27-6.13.69-.75-1.92-4.39.49Zm1.37-8.87l-.21.02c.05.67.02,1.23-.06,1.82l-.44,3.14,2.31-.26-1.08-2.97c-.21-.6-.38-1.19-.51-1.75Z"/><path d="m117.97,165.95c-1.13,1.15-2.72,1.96-3.4,2.27-1.9.87-4.24,1.13-6.34.35-2-.72-3.64-2.35-4.58-4.4-1.03-2.25-1.06-4.56-.35-6.52.55-1.5,1.76-3.48,4.49-4.73,1.09-.5,2.39-.89,3.73-1.02l2.7,5.47c-.89-.33-2.41-.64-3.74-.03-.83.38-1.44,1.06-1.71,1.87-.25.78-.16,1.66.19,2.42.36.79.99,1.42,1.81,1.7.63.21,1.49.32,2.54-.16,1.48-.68,2.1-2.05,2.31-2.73l2.34,5.5Z"/><path d="m125.13,161.47l-6.56-8.76-2.53,2.07-3.12-4.17,9.8-7.34,3.12,4.17-2.7,1.84,6.56,8.76-4.57,3.42Z"/><path d="m129.27,137.2l4.04-4.11,6.63,6.51c.34.34.86.77,1.52.78.46.01.8-.19,1.12-.52.42-.43.55-.8.55-1.11,0-.61-.6-1.2-.9-1.49l-6.63-6.51,4.05-4.13,7,6.88c.89.87,2.02,2.32,2.08,4.39.06,2.34-1.34,4.2-2.58,5.47-1.03,1.04-2.99,2.84-5.68,2.77-1.83-.05-3.06-.96-3.9-1.78l-7.29-7.16Z"/><path d="m153.32,119.66c-.83.17-2.23.58-3.13,1.52-.22.22-.52.6-.56.99-.03.27.04.44.21.61.24.23.5.42,1.25-.09l1.58-1.05c1.21-.8,2.21-1.01,2.88-1.02,1.41-.04,2.44.65,3.13,1.32.98.95,1.65,2.09,1.71,3.65.04,1.31-.37,3.32-2.45,5.48-1.7,1.76-3.33,2.45-4.68,3.05l-.52.23-2.03-4.39.78-.12c.74-.12,2.11-.5,3.1-1.52.55-.57.64-.95.66-1.1.03-.34-.13-.56-.3-.72-.1-.1-.29-.25-.53-.25-.27,0-.54.18-1.04.53l-1.17.84c-.75.54-1.65,1.05-2.92,1.05-1.17,0-2.1-.42-2.92-1.22-1.07-1.03-1.64-2.28-1.66-3.77-.05-1.75.61-3.61,2.38-5.44.88-.92,2.19-1.96,4.38-2.54l1.85,3.96Z"/></g></svg>