<?xml version="1.0" encoding="UTF-8"?><svg id="Layer_2" xmlns="http://www.w3.org/2000/svg" width="166.41" height="180.27" viewBox="0 0 166.41 180.27"><g id="Layer_1-2"><polygon points="37.94 67.88 58.77 81.72 20.8 138.67 0 124.8 37.94 67.88"/><polygon points="104.01 13.86 66.1 70.72 45.27 56.89 83.2 0 104.01 13.86"/><polygon points="69.18 88.64 90 102.47 52 159.47 31.2 145.6 69.18 88.64"/><polygon points="135.21 34.66 97.33 91.47 76.51 77.64 114.41 20.8 135.21 34.66"/><polygon points="100.42 109.39 121.24 123.22 83.2 180.27 62.4 166.41 100.42 109.39"/><polygon points="166.41 55.47 128.57 112.23 107.75 98.39 145.61 41.6 166.41 55.47"/></g></svg>