<?xml version="1.0" encoding="UTF-8"?><svg id="Layer_2" xmlns="http://www.w3.org/2000/svg" width="42.97" height="51.23" viewBox="0 0 42.97 51.23"><defs><style>.cls-1{fill:#fff;}</style></defs><g id="Layer_1-2"><path class="cls-1" d="m40.28,33.76c-.3.06-.61.13-.91.19-.31.07-.63.13-.94.2-.23.05-.46.08-.69.12l.95,5.37h-.01s0,.02,0,.02l-2.63.46,1.38,7.82-16,2.75-.9-5.11c-.91.16-1.78.31-2.65.46h0s0-.01,0-.01l-.47-2.69c-.43.08-.87.14-1.3.23-.33.07-.67.15-1,.23-.11.02-.21.05-.32.07h0s-.01-.01-.01-.01c0,0,0-.02,0-.02,0-.03,0-.06,0-.09,0-.04,0-.09,0-.13-.29-1.65-.58-3.29-.87-4.94,0-.05-.04-.1-.09-.21l-2.6.46-1.4-7.93c-.22.04-.4.07-.58.1-.34.05-.68.11-1.02.16-.33.05-.67.1-1,.15h0s-.02-.04-.02-.04c-.3-1.72-.61-3.45-.93-5.24l-2.63.46s0,0,0-.01h0s-.01,0-.01,0l-.46-2.58,5.22-.92h0s0,.01,0,.01h0s.46,2.61.46,2.61l2.68-.47.93,5.27,2.64-.47L10.44,3.6l5.31-.94,2.8,15.87.51-.09c1.35-.24,2.7-.48,4.05-.71.57-.1,1.14-.2,1.71-.29.36-.06.71-.12,1.07-.18l.65.2h.05c.13.76.27,1.52.41,2.32l4.68-.83.63.18h.03s.42,2.37.42,2.37l4.64-.82.64.19,2.27,12.86Z"/><path d="m40.65,20.12c-.91.16-1.78.31-2.65.47h0s0,0,0,0c0,.01,0,.02.01.04,0,.03.02.06.03.09.02.08.05.15.06.23.73,4.13,1.46,8.27,2.19,12.4.01.08.02.16.02.24,0,.04,0,.09,0,.13l2.66-.47-2.32-13.14Zm-2.66.46h0s0,0,0,0c0,0,0,0,0,0h0Zm2.32,13.16s0,0,0-.01h0s-.01,0-.01,0c0,0,0,0,0,0h0s0,0,0,0Zm-2.79-15.81l-5.25.93.47,2.65,5.25-.93-.47-2.65Zm1.85,16.01c-.31.07-.63.13-.94.2-.23.05-.46.08-.69.12l.95,5.37s.07-.01.1-.02c.29-.06.57-.12.86-.18.11-.02.22-.05.33-.07.22-.05.43-.09.65-.14.22-.05.44-.09.66-.14-.31-1.76-.61-3.47-.92-5.19,0-.03-.02-.05-.03-.08,0-.01-.02-.03-.02-.04,0,0,0-.01-.01-.02,0,0,0,0,0,0,0,0-.01,0-.02,0-.3.06-.61.13-.91.19Zm-.69,5.71h.01s0-.01,0-.01h0s-.01,0-.01,0h0Zm-1.25,8.3l2.61-.46c-.05-.28-.09-.53-.14-.78-.4-2.28-.79-4.56-1.19-6.84-.01-.07-.02-.14-.04-.21l-2.63.46,1.38,7.84Zm-5.16-29.1h-.01s0,.01,0,.01h.01s0-.01,0-.01Zm-.89-2.59c-1.5.26-3.01.53-4.51.8-.12.02-.24.07-.35.11l.46,2.62c1.59-.28,3.13-.55,4.68-.83l.6-.11-.47-2.64c-.17.02-.29.02-.42.04Zm-4.87.9h0s0,.01,0,.01c0,0,0,0,.01,0h0s0-.01,0-.01h-.01Zm-5.78-1.75l-2.34-13.26-2.65.47-.46-2.6-5.32.94.46,2.62-2.65.47,3.27,18.54c-.28.05-.52.09-.75.13-.32.06-.63.13-.95.19-.3.06-.61.12-.91.19,0,0-.02,0-.03,0h0s.46,2.62.46,2.62l2.68-.47.93,5.27,2.64-.47L10.43,3.59l5.31-.94,2.8,15.87.51-.09c1.35-.24,2.7-.48,4.05-.71.57-.1,1.14-.2,1.71-.29.35-.06.71-.12,1.06-.18.21-.04.42-.07.63-.11l-.47-2.69-5.31.94Zm.73,35.37l-.92-5.2c-.91.16-1.78.31-2.65.46h0s.92,5.2.92,5.2l2.65-.47Zm-3.58-4.73h0s0,0,0,0h0s0,0,0,0Zm-2.64.4c.26-.05.46-.08.65-.11.66-.1,1.32-.2,1.98-.3h0s-.48-2.7-.48-2.7c-.43.08-.87.14-1.3.23-.33.07-.67.15-1,.23-.11.03-.21.05-.32.08l.45,2.58Zm-.47-2.57s0,0,.01,0h0,0s0-.01,0-.01h-.01s0,0,0,0c0,0,0,0,0,.01Zm-7.57-12.27s0,.06,0,.1c0,.03,0,.06.01.09.42,2.43.85,4.85,1.28,7.28.02.11.06.21.11.35l2.61-.46.93,5.3c.34-.06.64-.12.93-.16.28-.04.57-.08.85-.12.23-.03.46-.06.68-.1.05,0,.1-.01.16-.02,0,0,0-.02,0-.02,0-.03,0-.06,0-.09,0-.04,0-.09,0-.13-.29-1.65-.58-3.29-.87-4.94,0-.05-.04-.1-.09-.21l-2.6.46-1.4-7.93c-.22.04-.4.07-.58.1-.34.05-.68.11-1.02.16-.33.05-.67.1-1,.15h0s0,.05,0,.08c0,.03,0,.07,0,.1Zm1.2-8.51h0s0,0,0,0h0s0,0,0,0Zm0,0l-.47-2.66-7.91,1.39.92,5.24c.85-.15,1.68-.3,2.5-.44.06,0,.12-.02.18-.03h0s-.46-2.58-.46-2.58l5.22-.92h0s0,0,0,0Zm-1.2,8.34h.01s0,0,0,0h0s-.01-.01-.01-.01h0,0s0,.01,0,.01Zm-3.56-4.54c0,.07,0,.15.02.22.25,1.43.5,2.87.75,4.3l.09.49,2.69-.48-.93-5.27-2.63.46s0,.08,0,.12c0,.05,0,.11,0,.16Zm0-.28s0,0,0,0h-.01s0,.01,0,.01h0Z"/><polygon points="8.39 23.09 8.39 23.09 8.38 23.09 8.38 23.09 8.38 23.09 8.38 23.09 8.38 23.08 8.38 23.08 8.39 23.08 8.39 23.09"/><path d="m26.5,17.15h0c-.21.04-.42.07-.63.11-.36.06-.71.12-1.07.18-.57.09-1.14.19-1.71.29-1.35.23-2.7.47-4.05.71l-.51.09-2.8-15.87-5.31.94,4.66,26.44-2.64.47-.93-5.27-2.68.47c-.16-.9-.31-1.76-.46-2.61.01,0,.02,0,.03,0,.3-.06.6-.12.91-.19.32-.06.63-.13.95-.19.24-.05.48-.08.75-.13L7.76,4.03l2.65-.47-.46-2.62,5.32-.94.46,2.6,2.65-.47,2.34,13.26,5.31-.94.47,2.69Z"/><polygon points="26.5 17.16 26.5 17.15 26.51 17.15 26.5 17.16"/><path d="m7.19,31.4s0,0,0,.01h-.01s0-.01,0-.01Z"/><path d="m14.76,43.86s0,0,0-.01h0s0,.01,0,.01Z"/><path d="m14.76,43.6s0,.08,0,.13c0,.03,0,.06,0,.09,0,0,0,.02,0,.02h0s0,0,0,0c-.05,0-.1.01-.15.02-.23.03-.46.06-.69.1-.28.04-.57.08-.85.12-.3.04-.59.1-.93.16l-.93-5.3-2.61.46c-.04-.14-.09-.25-.11-.35-.43-2.43-.86-4.85-1.28-7.28,0-.03,0-.06-.01-.09,0-.03,0-.06,0-.1,0-.03,0-.07,0-.1,0-.02,0-.05,0-.07t0,0h0c.33-.05.67-.1,1-.15.34-.05.68-.1,1.02-.16.18-.03.36-.06.58-.1l1.4,7.93,2.6-.46c.05.11.08.15.09.21.29,1.65.58,3.29.87,4.94Z"/><path d="m40.31,33.74c0-.13,0-.26-.02-.38-.73-4.13-1.46-8.27-2.19-12.4-.02-.13-.07-.25-.1-.37,0,0,0,.01,0,.01l2.66-.47c.77,4.38,1.55,8.77,2.32,13.14-.9.16-1.78.31-2.67.47,0,0,0,0,0,0Z"/><polygon points="3.61 26.58 3.61 26.58 3.62 26.58 3.62 26.58 3.62 26.58 3.61 26.59 3.61 26.58"/><path d="m8.38,23.08h0c-1.74.31-3.48.62-5.22.92l.46,2.58-2.69.47-.92-5.24,7.91-1.39c.16.89.31,1.77.47,2.66Z"/><polygon points="8.39 23.08 8.39 23.08 8.38 23.08 8.38 23.08 8.38 23.09 8.38 23.09 8.38 23.09 8.38 23.08 8.39 23.08"/><path d="m38.68,39.64c.01.07.02.14.04.21.4,2.28.79,4.56,1.19,6.85.04.25.09.5.14.78l-2.61.46-1.38-7.84,2.63-.46Z"/><polygon points="38.69 39.64 38.68 39.64 38.68 39.63 38.69 39.64"/><polygon points="38.68 39.63 38.69 39.63 38.69 39.64 38.68 39.63 38.68 39.63"/><polygon points="40.31 33.74 40.3 33.74 40.3 33.73 40.31 33.74 40.31 33.74"/><path d="m41.29,39.07c-.22.05-.44.09-.66.14-.22.05-.44.09-.65.14-.11.02-.22.05-.33.07-.29.06-.58.12-.86.18-.03,0-.06.01-.1.02h0s-.95-5.37-.95-5.37c.22-.04.46-.07.69-.12.31-.06.63-.13.94-.2.3-.06.61-.13.91-.19,0,0,.01,0,.02,0h0s0,0,0,0c0,0,0,0,0,0,0,0,0,.01.01.02,0,.01.02.03.02.04.01.03.03.05.03.08.3,1.72.61,3.43.92,5.19Z"/><path d="m26.51,17.15h0s0,.01-.01.01h0Z"/><path d="m32.26,18.85l-5.28.93c-.14-.8-.27-1.56-.41-2.31l-.05-.31h0c.12-.04.23-.09.35-.11,1.5-.27,3-.53,4.51-.8.12-.02.25-.03.42-.04l.47,2.64Z"/><polygon points="32.26 18.86 32.26 18.85 32.27 18.84 32.26 18.86"/><polygon points="32.27 18.84 32.27 18.85 32.26 18.86 32.27 18.84"/><path d="m37.52,17.93c.16.89.31,1.77.47,2.65l-.61.11c-1.52.27-3.05.54-4.64.82l-.47-2.65,5.25-.93Z"/><polygon points="38 20.58 38 20.58 37.99 20.59 37.99 20.59 37.99 20.58 38 20.58"/><polygon points="3.62 26.58 3.62 26.59 3.61 26.59 3.62 26.58 3.62 26.58"/><path d="m7.18,31.4h0s0,0,0,0c-.77.13-1.54.27-2.35.41l-.35.06-.09-.49c-.25-1.43-.51-2.86-.75-4.3-.01-.07-.02-.14-.02-.22,0-.05,0-.11,0-.16,0-.04,0-.08,0-.12l2.63-.46.12.67c.27,1.56.54,3.07.81,4.57v.03Z"/><polygon points="7.19 31.4 7.18 31.41 7.18 31.4 7.19 31.4"/><path d="m14.77,43.84h0s0,.01-.01.01c0,0,0-.01,0-.01h0Z"/><path d="m17.86,46.02h0c-.66.11-1.32.2-1.98.3-.19.03-.39.07-.65.11-.14-.79-.27-1.54-.4-2.28l-.05-.3h0s0,0,0,0c.11-.02.21-.05.32-.07.33-.08.66-.16,1-.23.43-.09.87-.16,1.3-.23.16.93.32,1.81.47,2.69Z"/><polygon points="17.87 46.02 17.87 46.03 17.87 46.03 17.87 46.03 17.86 46.02 17.87 46.02 17.87 46.02"/></g></svg>